# xmcd CD database file
#
# Track frame offsets:
#	150
#	29274
#	34090
#	38125
#	43027
#	49444
#	52355
#	56663
#	59525
#	72061
#	99376
#	106384
#	120487
#	124545
#	143841
#	146123
#	150775
#	160001
#	163526
#	170723
#	180786
#	187784
#	195084
#	203855
#	210996
#	229437
#
# Disc length: 3374 seconds
#
# Revision: 1
# Processed by: cddbd v1.5.2PL0 Copyright (c) Steve Scherf et al.
# Submitted via: CDex 1.51
#
DISCID=640d2c1a
DTITLE=Philharmonia a Vent - Pictures at an Exhibition
DYEAR=1989
DGENRE=Wind Band
TTITLE0=Dimitri Shostakovich - Festive Overture
TTITLE1=P. I. Tchaikovsky - Theme and Seven Variations from Suite 3 I. Theme
TTITLE2=P. I. Tchaikovsky - Theme and Seven Variations from Suite 3 II. Andante con moto
TTITLE3=P. I. Tchaikovsky - Theme and Seven Variations from Suite 3 III. Tempo del Thema
TTITLE4=P. I. Tchaikovsky - Theme and Seven Variations from Suite 3 IV. Tempo del Thema
TTITLE5=P. I. Tchaikovsky - Theme and Seven Variations from Suite 3 V. Moderato
TTITLE6=P. I. Tchaikovsky - Theme and Seven Variations from Suite 3 VI. Largo
TTITLE7=P. I. Tchaikovsky - Theme and Seven Variations from Suite 3 VII. Allegro molto vivace
TTITLE8=P. I. Tchaikovsky - Theme and Seven Variations from Suite 3 VIII. Finale - Polacca
TTITLE9=P. I. Tchaikovsky - Festival Coronation March
TTITLE10=Modest Mussorgsky - Pictures at an Exhibition I. Promenade
TTITLE11=Modest Mussorgsky - Pictures at an Exhibition II. Gnomus
TTITLE12=Modest Mussorgsky - Pictures at an Exhibition III. Promenade
TTITLE13=Modest Mussorgsky - Pictures at an Exhibition IV. The Old Castle
TTITLE14=Modest Mussorgsky - Pictures at an Exhibition V. Promenade
TTITLE15=Modest Mussorgsky - Pictures at an Exhibition VI. Tuileries
TTITLE16=Modest Mussorgsky - Pictures at an Exhibition VII. Bydlo
TTITLE17=Modest Mussorgsky - Pictures at an Exhibition VIII. Promenade
TTITLE18=Modest Mussorgsky - Pictures at an Exhibition IX. Ballet of the two Chicks in Their Shells
TTITLE19=Modest Mussorgsky - Pictures at an Exhibition X. Two Jews, One Rich, The other Poor
TTITLE20=Modest Mussorgsky - Pictures at an Exhibition XI. Promenade
TTITLE21=Modest Mussorgsky - Pictures at an Exhibition XII. Limoges
TTITLE22=Modest Mussorgsky - Pictures at an Exhibition XIII. Catacombae
TTITLE23=Modest Mussorgsky - Pictures at an Exhibition XIV. Cum Mortuis in lingua mortua
TTITLE24=Modest Mussorgsky - Pictures at an Exhibition XV. Baba Yaga
TTITLE25=Modest Mussorgsky - Pictures at an Exhibition XVI. The Great Gate of Kiev
EXTD=YEAR: 1989
EXTT0=
EXTT1=
EXTT2=
EXTT3=
EXTT4=
EXTT5=
EXTT6=
EXTT7=
EXTT8=
EXTT9=
EXTT10=
EXTT11=
EXTT12=
EXTT13=
EXTT14=
EXTT15=
EXTT16=
EXTT17=
EXTT18=
EXTT19=
EXTT20=
EXTT21=
EXTT22=
EXTT23=
EXTT24=
EXTT25=
PLAYORDER=
